<svg width="128" height="48" viewbox="0 0 128 48" fill="none" xmlns="http://www.w3.org/2000/svg">
  <g clip-path="url(#clip0_358_2288)">
    <path
      d="M66.0839 15.7454L72.1737 15.3518C72.3126 16.3474 72.5673 17.0884 72.9841 17.6209C73.6556 18.4545 74.5818 18.8713 75.809 18.8713C76.712 18.8713 77.4298 18.6629 77.9161 18.223C78.3792 17.8756 78.657 17.3199 78.657 16.7411C78.657 16.1853 78.4023 15.6528 77.9624 15.3055C77.4993 14.8887 76.411 14.4719 74.6975 14.1014C71.8958 13.4762 69.8813 12.6427 68.7004 11.5775C67.5195 10.5819 66.848 9.12311 66.8944 7.57174C66.8944 6.50661 67.2185 5.44149 67.8205 4.56161C68.5152 3.56595 69.4645 2.77868 70.5991 2.33874C71.8263 1.80618 73.5398 1.52832 75.6932 1.52832C78.3329 1.52832 80.3473 2.01457 81.7366 3.01023C83.1259 3.98273 83.9595 5.55726 84.2142 7.71067L78.1939 8.05799C78.0318 7.13179 77.7077 6.4603 77.1751 6.02036C76.6425 5.58042 75.9479 5.37203 75.0449 5.37203C74.3039 5.37203 73.7482 5.53411 73.3777 5.83512C73.0304 6.11298 72.7988 6.52977 72.822 6.99287C72.822 7.34019 73.0072 7.66436 73.2851 7.87275C73.5861 8.15061 74.3039 8.40531 75.4385 8.63686C78.2402 9.23889 80.2315 9.84091 81.4588 10.4661C82.686 11.0913 83.5658 11.8554 84.0984 12.7584C84.6541 13.6846 84.932 14.7497 84.9088 15.838C84.9088 17.1347 84.5384 18.4314 83.7974 19.5196C83.0333 20.6542 81.9682 21.5341 80.7178 22.0667C79.398 22.6455 77.7308 22.9466 75.7395 22.9466C72.22 22.9466 69.7887 22.2751 68.4226 20.9089C67.0564 19.5428 66.246 17.8293 66.0839 15.7454ZM1.45876 22.5992V1.8988H12.1331C14.1013 1.8988 15.6295 2.06088 16.6715 2.4082C17.6903 2.73237 18.5933 3.40386 19.1954 4.3069C19.8669 5.30256 20.191 6.4603 20.1679 7.66436C20.2373 9.70198 19.1954 11.647 17.4124 12.6658C16.7178 13.0594 15.9537 13.3373 15.1664 13.4762C15.7453 13.6383 16.3242 13.9162 16.8336 14.2403C17.2272 14.5645 17.5514 14.935 17.8524 15.3286C18.1997 15.7222 18.5007 16.1622 18.7554 16.6253L21.8582 22.6224H14.5876L11.1606 16.2548C10.7207 15.4444 10.3502 14.9118 10.0029 14.6571C9.5398 14.333 8.98408 14.1709 8.42837 14.1709H7.87265V22.5761H1.45876V22.5992ZM7.87265 10.2809H10.5818C11.1606 10.2345 11.7164 10.1419 12.2721 10.003C12.6889 9.93353 13.0593 9.70198 13.314 9.35466C13.9392 8.52109 13.8466 7.34019 13.0825 6.62239C12.6657 6.27507 11.8553 6.08983 10.6975 6.08983H7.87265V10.2809ZM0 40.3359L6.08973 39.9422C6.22865 40.9379 6.48336 41.6788 6.90014 42.2114C7.54848 43.045 8.49783 43.4849 9.72504 43.4849C10.6281 43.4849 11.3459 43.2765 11.8321 42.8366C12.2952 42.4661 12.5731 41.9335 12.5731 41.3547C12.5731 40.799 12.3184 40.2664 11.8784 39.9191C11.4153 39.5023 10.3271 39.0855 8.59045 38.715C5.78871 38.0898 3.77424 37.2563 2.59334 36.1911C1.41245 35.1955 0.740955 33.7367 0.787265 32.1853C0.787265 31.1202 1.11143 30.0551 1.71346 29.1752C2.4081 28.1796 3.35745 27.3923 4.49204 26.9524C5.71925 26.4198 7.43271 26.1419 9.58611 26.1419C12.2258 26.1419 14.2402 26.6282 15.6295 27.6238C17.0188 28.6195 17.8292 30.1709 18.0839 32.3243L12.0637 32.6716C11.9016 31.7454 11.5774 31.0739 11.0449 30.634C10.5355 30.194 9.81766 29.9856 8.91462 30.0088C8.17366 30.0088 7.61795 30.1709 7.24747 30.495C6.87699 30.7729 6.6686 31.1897 6.69175 31.6528C6.69175 32.0001 6.87699 32.3243 7.15485 32.5327C7.45586 32.8105 8.17366 33.0652 9.30825 33.2968C12.11 33.8988 14.1013 34.5008 15.3285 35.126C16.5557 35.7512 17.4356 36.5153 17.9682 37.4183C18.5239 38.3445 18.8017 39.4097 18.8017 40.4748C18.8017 41.7715 18.4081 43.045 17.6903 44.1333C16.9262 45.2678 15.8611 46.1477 14.6107 46.6803C13.2909 47.2592 11.6237 47.5602 9.63242 47.5602C6.11288 47.5602 3.68162 46.8887 2.31549 45.5225C0.949349 44.1333 0.185239 42.4198 0 40.3359H0Z"
      fill="currentColor" />
    <path
      d="M30.7959 38.7152L36.3994 40.4055C36.0983 41.8179 35.4732 43.1609 34.6164 44.3418C33.8292 45.3838 32.7872 46.1942 31.6063 46.7267C30.4023 47.2593 28.874 47.5372 27.0216 47.5372C24.7756 47.5372 22.9232 47.213 21.5108 46.5647C20.0752 45.9163 18.848 44.7586 17.806 43.1146C16.764 41.4706 16.2546 39.3635 16.2546 36.7933C16.2546 33.3664 17.1577 30.7267 18.9869 28.8975C20.8161 27.0683 23.3863 26.1421 26.7206 26.1421C29.3371 26.1421 31.3748 26.6747 32.8798 27.7166C34.3617 28.7817 35.4732 30.4026 36.2141 32.5791L30.5643 33.8295C30.4254 33.3432 30.217 32.857 29.9392 32.4402C29.5918 31.954 29.1519 31.5835 28.6193 31.3056C28.0868 31.0278 27.4847 30.912 26.8827 30.912C25.424 30.912 24.3125 31.4909 23.5484 32.6718C22.9695 33.5285 22.6685 34.8946 22.6685 36.747C22.6685 39.0393 23.0159 40.6139 23.7105 41.4706C24.4051 42.3273 25.3776 42.7441 26.6512 42.7441C27.8784 42.7441 28.8046 42.3968 29.4297 41.7253C30.0549 41.0075 30.518 40.0118 30.7959 38.7152ZM43.8784 26.4894H50.2691V33.7369H57.2619V26.4894H63.6989V47.1898H57.2619V38.8078H50.2691V47.1898H43.8784V26.4894Z"
      fill="currentColor" />
    <path
      d="M62.8191 36.8398C62.8191 33.4592 63.7684 30.8196 65.644 28.944C67.5195 27.0685 70.1592 26.1191 73.5166 26.1191C76.9667 26.1191 79.6064 27.0453 81.4819 28.8977C83.3574 30.7501 84.2836 33.3435 84.2836 36.6777C84.2836 39.109 83.8669 41.0772 83.0564 42.6285C82.2692 44.1568 81.042 45.4071 79.5369 46.2407C77.9855 47.0974 76.0637 47.5374 73.7713 47.5374C71.4327 47.5374 69.5108 47.1669 67.9826 46.4259C66.4081 45.6387 65.1114 44.4115 64.2547 42.9064C63.3053 41.2856 62.8191 39.2711 62.8191 36.8398ZM69.2098 36.863C69.2098 38.9469 69.6035 40.452 70.3676 41.3782C71.1317 42.2812 72.1968 42.7443 73.5398 42.7443C74.9059 42.7443 75.971 42.3044 76.7352 41.4013C77.4993 40.4983 77.8697 38.9006 77.8697 36.5851C77.8697 34.6401 77.4761 33.2045 76.6889 32.3246C75.9016 31.4216 74.8365 30.9817 73.4935 30.9817C72.3126 30.9353 71.178 31.4448 70.3907 32.3478C69.6035 33.2508 69.2098 34.7559 69.2098 36.863ZM90.8365 36.8398C90.8365 33.4592 91.7858 30.8196 93.6614 28.944C95.5369 27.0685 98.1766 26.1191 101.534 26.1191C104.984 26.1191 107.647 27.0453 109.499 28.8977C111.352 30.7501 112.301 33.3435 112.301 36.6777C112.301 39.109 111.884 41.0772 111.074 42.6285C110.287 44.1568 109.059 45.4071 107.554 46.2407C106.003 47.0974 104.081 47.5374 101.789 47.5374C99.4501 47.5374 97.5282 47.1669 96 46.4259C94.4255 45.6387 93.1288 44.4115 92.2721 42.9064C91.3227 41.2856 90.8365 39.2711 90.8365 36.8398ZM97.2272 36.863C97.2272 38.9469 97.6208 40.452 98.3849 41.3782C99.1491 42.2812 100.214 42.7443 101.557 42.7443C102.923 42.7443 103.988 42.3044 104.753 41.4013C105.517 40.4983 105.887 38.9006 105.887 36.5851C105.887 34.6401 105.493 33.2045 104.706 32.3246C103.919 31.4216 102.854 30.9817 101.511 30.9817C100.33 30.9353 99.1722 31.4448 98.4081 32.3478C97.6208 33.2508 97.2272 34.7559 97.2272 36.863Z"
      fill="currentColor" />
    <path d="M111.629 26.4893H118.02V42.0956H128V47.1897H111.606V26.4893H111.629Z" fill="currentColor" />
    <path
      d="M104.586 25.2946C111.02 20.4459 113.004 12.2267 109.017 6.93647C105.03 1.6462 96.5828 1.28818 90.1486 6.1368C83.7145 10.9854 81.7305 19.2046 85.7171 24.4949C89.7038 29.7852 98.1515 30.1432 104.586 25.2946Z"
      stroke="currentColor" stroke-width="2" stroke-miterlimit="10" />
    <path
      d="M90.8596 14.1937L93.1751 12.5728L96.0231 16.6249C96.5094 17.2733 96.8799 17.9679 97.1577 18.732C97.3198 19.3109 97.2735 19.9361 97.0419 20.4918C96.7409 21.1864 96.2547 21.7653 95.6063 22.1821C94.8422 22.7147 94.1939 23.0157 93.6382 23.1083C93.1056 23.2009 92.5499 23.1083 92.0405 22.8767C91.4848 22.5989 90.9985 22.2053 90.6281 21.6958L92.6194 19.8435C92.7815 20.0982 92.9898 20.3297 93.2214 20.515C93.3835 20.6307 93.5687 20.7002 93.7771 20.7002C93.9392 20.7002 94.1013 20.6307 94.2171 20.5381C94.4486 20.3992 94.6107 20.1213 94.5875 19.8435C94.5181 19.4498 94.356 19.0562 94.1013 18.7552L90.8596 14.1937ZM97.8061 16.7639L99.9131 15.0967C100.145 15.3746 100.446 15.583 100.77 15.6987C101.233 15.8377 101.719 15.7451 102.113 15.444C102.391 15.2588 102.622 15.0041 102.715 14.6799C102.854 14.2631 102.622 13.8 102.205 13.6611C102.136 13.638 102.067 13.6148 101.997 13.6148C101.719 13.5917 101.233 13.7074 100.515 14.0084C99.3343 14.4947 98.4081 14.6799 97.7134 14.6105C97.0419 14.541 96.4168 14.1937 96.0463 13.6148C95.7684 13.2212 95.6295 12.7581 95.6063 12.295C95.6063 11.7624 95.7453 11.2299 96.0463 10.7899C96.4862 10.1647 97.0188 9.63217 97.6671 9.21538C98.6396 8.54389 99.4964 8.21973 100.237 8.21973C100.978 8.21973 101.673 8.56705 102.321 9.28485L100.237 10.9288C99.8205 10.3963 99.0333 10.2805 98.5007 10.6973L98.4312 10.7668C98.1997 10.9057 98.0376 11.1141 97.945 11.3688C97.8755 11.554 97.9218 11.7624 98.0376 11.9245C98.1302 12.0403 98.2692 12.1329 98.4312 12.1329C98.6165 12.1561 98.9406 12.0634 99.4037 11.855C100.561 11.3688 101.441 11.0909 102.043 10.9983C102.553 10.9057 103.085 10.952 103.572 11.1604C104.012 11.3456 104.382 11.6698 104.637 12.0634C104.961 12.5265 105.146 13.0822 105.169 13.6611C105.192 14.2631 105.03 14.842 104.706 15.3514C104.289 15.9766 103.757 16.5092 103.132 16.9259C101.858 17.8058 100.816 18.1763 99.9826 18.0374C99.0796 17.8985 98.3386 17.4354 97.8061 16.7639Z"
      fill="currentColor" />
  </g>
  <defs>
    <clippath id="clip0_358_2288">
      <rect width="128" height="47.5369" fill="currentColor" />
    </clippath>
  </defs>
</svg>