<?xml version="1.0" standalone="no"?>
<!DOCTYPE svg PUBLIC "-//W3C//DTD SVG 1.0//EN" "http://www.w3.org/TR/2001/REC-SVG-20010904/DTD/svg10.dtd">
<svg xmlns="http://www.w3.org/2000/svg" xmlns:xlink="http://www.w3.org/1999/xlink" id="body_1" width="667" height="667">

<defs>
    <clipPath  id="1">

    <path id=""  clip-rule="evenodd" transform="matrix(1 0 0 1 0 0)"  d="M500 500L0 500L0 500L0 0L0 0L500 0L500 0L500 500z" />    </clipPath>
</defs>

<g transform="matrix(1.3333 0 0 1.3333 0 0)">
	<g clip-path="url(#1)" >
    <path id=""  transform="matrix(1 0 0 -1 0 500)"  d="M0 -9.184851E-14L0 -9.184851E-14L0 -9.184851E-14L250 500L250 500L500 -6.7762636E-21L500 -6.7762636E-21L250 125L250 125L0 -9.184851E-14z" stroke="#FFFFFF" stroke-width="1.3020834" fill="#ff4040" fill-rule="evenodd" />
	</g>
</g>
</svg>
